name C:\Users\u0101727\Documents\MyRepositories\paper-ad\predictivesimulations_2d/Results/PredSim_2D/IK_c2.mot
datacolumns 11
datarows 34
range 1.27589726 1.59247327
endheader
time	pelvis_tilt	pelvis_tx	pelvis_ty	hip_flexion_l	hip_flexion_r	knee_angle_l	knee_angle_r	ankle_angle_l	ankle_angle_r	lumbar_extension	
          1.27589726	        -15.17561967	          1.69363926	          0.90056121	         33.25530303	         10.44422894	        -37.56648800	         -7.30399796	         15.70262898	         11.28637975	          9.51252969	
          1.28549047	        -15.17496486	          1.70562555	          0.89970566	         34.22347378	          9.66872830	        -36.09340857	         -7.35171753	         15.98885950	         11.29629383	          9.47261925	
          1.29508368	        -15.17539822	          1.71766713	          0.89879182	         35.13050048	          8.91082968	        -34.50365557	         -7.43504511	         16.19415781	         11.29414725	          9.43595293	
          1.30467689	        -15.17730815	          1.72977052	          0.89781846	         35.97294747	          8.16946168	        -32.80511553	         -7.55290549	         16.32764264	         11.28353812	          9.40284082	
          1.31427011	        -15.18101403	          1.74194387	          0.89678441	         36.74624415	          7.44429344	        -31.00917681	         -7.70563155	         16.39809269	         11.26524602	          9.37366999	
          1.32386332	        -15.18657982	          1.75419924	          0.89569239	         37.44370900	          6.73624304	        -29.14192224	         -7.89694686	         16.41365022	         11.23759742	          9.34903069	
          1.33345653	        -15.19402755	          1.76655494	          0.89455492	         38.05245878	          6.04733075	        -27.23752460	         -8.13309227	         16.38160336	         11.19450105	          9.33022758	
          1.34304974	        -15.20337264	          1.77903254	          0.89339379	         38.55674133	          5.38073271	        -25.32817007	         -8.42121906	         16.30834806	         11.12349514	          9.31898155	
          1.35264296	        -15.21429473	          1.79165087	          0.89223151	         38.94709137	          4.74087252	        -23.44174995	         -8.76981711	         16.19927731	         11.00827591	          9.31648307	
          1.36223617	        -15.22600012	          1.80442457	          0.89108603	         39.22328912	          4.13303063	        -21.60011421	         -9.18876216	         16.05852235	         10.83229365	          9.32314338	
          1.37182938	        -15.23727981	          1.81736649	          0.88997161	         39.39220128	          3.56248052	        -19.82495283	         -9.68833804	         15.88869068	         10.58127390	          9.33889209	
          1.38142259	        -15.24691640	          1.83049048	          0.88890039	         39.46106152	          3.03408219	        -18.13118082	        -10.27817889	         15.69098576	         10.24239672	          9.36381962	
          1.39101581	        -15.25376862	          1.84381099	          0.88788153	         39.43667212	          2.55227859	        -16.53054734	        -10.96686657	         15.46531012	          9.80352997	          9.39816479	
          1.40060902	        -15.25658315	          1.85734221	          0.88692028	         39.32661915	          2.12169161	        -15.04008265	        -11.76340895	         15.21038364	          9.25383803	          9.44206745	
          1.41020223	        -15.25409641	          1.87109852	          0.88601771	         39.13595270	          1.74784463	        -13.67437328	        -12.67810546	         14.92419039	          8.58236143	          9.49581916	
          1.41979544	        -15.24490309	          1.88509351	          0.88516952	         38.86946955	          1.43664825	        -12.45336611	        -13.72188874	         14.60384673	          7.77868337	          9.55967059	
          1.42938866	        -15.22744774	          1.89933893	          0.88436458	         38.53250896	          1.19374872	        -11.40582959	        -14.90494577	         14.24554898	          6.83532124	          9.63377480	
          1.43898187	        -15.20029308	          1.91384588	          0.88358380	         38.12537020	          1.02392190	        -10.56258340	        -16.23655823	         13.84493628	          5.75233111	          9.71872662	
          1.44857508	        -15.16225191	          1.92862260	          0.88279561	         37.64102533	          0.93008858	         -9.95725681	        -17.72970423	         13.39702342	          4.55210546	          9.81558608	
          1.45816829	        -15.11317161	          1.94366277	          0.88195615	         37.06150825	          0.91497424	         -9.63800620	        -19.39030335	         12.89700061	          3.24815074	          9.92549231	
          1.46776151	        -15.05560921	          1.95894936	          0.88108886	         36.31872228	          0.98581234	         -9.72547852	        -21.21527929	         12.34279913	          1.82061016	         10.05242067	
          1.47735472	        -14.99777945	          1.97429653	          0.88032072	         35.45576988	          1.14723934	        -10.03985987	        -23.18608363	         11.77379581	          0.35492102	         10.18694729	
          1.48694793	        -14.95065915	          1.98936353	          0.87988139	         34.59784940	          1.42609863	        -10.32008605	        -25.21021567	         11.22394184	         -0.92768233	         10.30583314	
          1.49654114	        -14.92280102	          2.00390335	          0.88003305	         33.78225760	          1.85066987	        -10.57840418	        -27.14748311	         10.69307582	         -1.92929501	         10.39516435	
          1.50613436	        -14.91653774	          2.01785308	          0.88093172	         33.01146716	          2.41685851	        -10.80973940	        -28.93529304	         10.19583520	         -2.67921679	         10.45379992	
          1.51572757	        -14.92717649	          2.03129602	          0.88253648	         32.26695341	          3.10785938	        -11.00211169	        -30.59435477	          9.74849380	         -3.18688560	         10.48788140	
          1.52532078	        -14.94812494	          2.04435640	          0.88463734	         31.52759962	          3.90313779	        -11.14659333	        -32.15380970	          9.36251870	         -3.46505203	         10.50442893	
          1.53491399	        -14.97402085	          2.05714168	          0.88700153	         30.77659510	          4.78714554	        -11.23635200	        -33.63127329	          9.04417589	         -3.52928734	         10.50875182	
          1.54450720	        -15.00142671	          2.06972607	          0.88944623	         30.00449524	          5.74786372	        -11.26946908	        -35.03521173	          8.79507318	         -3.39461398	         10.50404069	
          1.55410042	        -15.02844931	          2.08215651	          0.89184778	         29.20678100	          6.77629283	        -11.24638851	        -36.36692583	          8.61416164	         -3.07732845	         10.49205047	
          1.56369363	        -15.05412651	          2.09446307	          0.89412695	         28.38191101	          7.86503551	        -11.16911904	        -37.62330045	          8.49878502	         -2.59416539	         10.47378973	
          1.57328684	        -15.07796795	          2.10666605	          0.89623332	         27.53026271	          9.00791120	        -11.04114727	        -38.79946507	          8.44519151	         -1.96198665	         10.44987396	
          1.58288005	        -15.09970516	          2.11878052	          0.89813445	         26.65348782	         10.19936869	        -10.86732914	        -39.88934811	          8.44881616	         -1.19773491	         10.42075477	
          1.59247327	        -15.11916627	          2.13081888	          0.89980939	         25.75418588	         11.43405529	        -10.65369290	        -40.88616062	          8.50449543	         -0.31857184	         10.38683950	
